%TF.GenerationSoftware,KiCad,Pcbnew,8.0.0*%
%TF.CreationDate,2024-03-28T15:17:03+02:00*%
%TF.ProjectId,EEE3088F_MHMZAM005_Sensing,45454533-3038-4384-965f-4d484d5a414d,rev?*%
%TF.SameCoordinates,Original*%
%TF.FileFunction,Legend,Bot*%
%TF.FilePolarity,Positive*%
%FSLAX46Y46*%
G04 Gerber Fmt 4.6, Leading zero omitted, Abs format (unit mm)*
G04 Created by KiCad (PCBNEW 8.0.0) date 2024-03-28 15:17:03*
%MOMM*%
%LPD*%
G01*
G04 APERTURE LIST*
%ADD10C,0.150000*%
%ADD11C,0.120000*%
%ADD12C,1.600000*%
%ADD13O,1.600000X1.600000*%
%ADD14R,1.800000X1.800000*%
%ADD15C,1.800000*%
%ADD16R,1.050000X1.500000*%
%ADD17O,1.050000X1.500000*%
%ADD18R,1.700000X1.700000*%
%ADD19O,1.700000X1.700000*%
G04 APERTURE END LIST*
D10*
X136584819Y-86196666D02*
X137299104Y-86196666D01*
X137299104Y-86196666D02*
X137441961Y-86149047D01*
X137441961Y-86149047D02*
X137537200Y-86053809D01*
X137537200Y-86053809D02*
X137584819Y-85910952D01*
X137584819Y-85910952D02*
X137584819Y-85815714D01*
X137584819Y-87196666D02*
X137584819Y-86625238D01*
X137584819Y-86910952D02*
X136584819Y-86910952D01*
X136584819Y-86910952D02*
X136727676Y-86815714D01*
X136727676Y-86815714D02*
X136822914Y-86720476D01*
X136822914Y-86720476D02*
X136870533Y-86625238D01*
D11*
%TO.C,J1*%
X100450000Y-83930000D02*
X100450000Y-89130000D01*
X100450000Y-83930000D02*
X136130000Y-83930000D01*
X100450000Y-89130000D02*
X133530000Y-89130000D01*
X133530000Y-86530000D02*
X133530000Y-89130000D01*
X136130000Y-83930000D02*
X136130000Y-86530000D01*
X136130000Y-86530000D02*
X133530000Y-86530000D01*
X136130000Y-87800000D02*
X136130000Y-89130000D01*
X136130000Y-89130000D02*
X134800000Y-89130000D01*
%TD*%
%LPC*%
D12*
%TO.C,R7*%
X145640000Y-68000000D03*
D13*
X143100000Y-68000000D03*
%TD*%
D14*
%TO.C,D1*%
X123475000Y-76275000D03*
D15*
X120935000Y-76275000D03*
%TD*%
D12*
%TO.C,R11*%
X132945000Y-71700000D03*
D13*
X130405000Y-71700000D03*
%TD*%
D12*
%TO.C,R10*%
X130900000Y-68100000D03*
D13*
X133440000Y-68100000D03*
%TD*%
D12*
%TO.C,R2*%
X106340000Y-73400000D03*
D13*
X103800000Y-73400000D03*
%TD*%
D12*
%TO.C,R8*%
X145640000Y-72050000D03*
D13*
X143100000Y-72050000D03*
%TD*%
D14*
%TO.C,Q1*%
X117250000Y-73125000D03*
D15*
X114710000Y-73125000D03*
%TD*%
D14*
%TO.C,Q2*%
X87825000Y-79450000D03*
D15*
X87825000Y-81990000D03*
%TD*%
D12*
%TO.C,R4*%
X90955000Y-67950000D03*
D13*
X93495000Y-67950000D03*
%TD*%
D12*
%TO.C,R6*%
X93045000Y-75500000D03*
D13*
X90505000Y-75500000D03*
%TD*%
D12*
%TO.C,RLED2*%
X92400000Y-81640000D03*
D13*
X92400000Y-79100000D03*
%TD*%
D12*
%TO.C,R9*%
X143550000Y-76100000D03*
D13*
X146090000Y-76100000D03*
%TD*%
D12*
%TO.C,R13*%
X99985000Y-75300000D03*
D13*
X97445000Y-75300000D03*
%TD*%
D12*
%TO.C,R5*%
X90955000Y-72000000D03*
D13*
X93495000Y-72000000D03*
%TD*%
D12*
%TO.C,R15*%
X137800000Y-81600000D03*
D13*
X140340000Y-81600000D03*
%TD*%
D12*
%TO.C,R14*%
X139845000Y-76700000D03*
D13*
X137305000Y-76700000D03*
%TD*%
D12*
%TO.C,R12*%
X97800000Y-70700000D03*
D13*
X100340000Y-70700000D03*
%TD*%
D16*
%TO.C,Q4*%
X127660000Y-78060000D03*
D17*
X128930000Y-78060000D03*
X130200000Y-78060000D03*
%TD*%
D12*
%TO.C,R3*%
X104260000Y-78400000D03*
D13*
X106800000Y-78400000D03*
%TD*%
D16*
%TO.C,Q6*%
X138730000Y-86460000D03*
D17*
X140000000Y-86460000D03*
X141270000Y-86460000D03*
%TD*%
D14*
%TO.C,D3*%
X145325000Y-82275000D03*
D15*
X145325000Y-79735000D03*
%TD*%
D14*
%TO.C,D2*%
X91175000Y-85325000D03*
D15*
X91175000Y-87865000D03*
%TD*%
D14*
%TO.C,Q3*%
X148600000Y-88540000D03*
D15*
X148600000Y-86000000D03*
%TD*%
D12*
%TO.C,R1*%
X106340000Y-68400000D03*
D13*
X103800000Y-68400000D03*
%TD*%
D12*
%TO.C,RLED1*%
X127400000Y-71045000D03*
D13*
X127400000Y-68505000D03*
%TD*%
D12*
%TO.C,RLED3*%
X145400000Y-87845000D03*
D13*
X145400000Y-85305000D03*
%TD*%
D16*
%TO.C,Q5*%
X95630000Y-87460000D03*
D17*
X96900000Y-87460000D03*
X98170000Y-87460000D03*
%TD*%
D18*
%TO.C,J1*%
X134800000Y-87800000D03*
D19*
X134800000Y-85260000D03*
X132260000Y-87800000D03*
X132260000Y-85260000D03*
X129720000Y-87800000D03*
X129720000Y-85260000D03*
X127180000Y-87800000D03*
X127180000Y-85260000D03*
X124640000Y-87800000D03*
X124640000Y-85260000D03*
X122100000Y-87800000D03*
X122100000Y-85260000D03*
X119560000Y-87800000D03*
X119560000Y-85260000D03*
X117020000Y-87800000D03*
X117020000Y-85260000D03*
X114480000Y-87800000D03*
X114480000Y-85260000D03*
X111940000Y-87800000D03*
X111940000Y-85260000D03*
X109400000Y-87800000D03*
X109400000Y-85260000D03*
X106860000Y-87800000D03*
X106860000Y-85260000D03*
X104320000Y-87800000D03*
X104320000Y-85260000D03*
X101780000Y-87800000D03*
X101780000Y-85260000D03*
%TD*%
%LPD*%
M02*
