M48
; DRILL file {KiCad 8.0.0} date 2024-03-28T15:17:03+0200
; FORMAT={-:-/ absolute / inch / decimal}
; #@! TF.CreationDate,2024-03-28T15:17:03+02:00
; #@! TF.GenerationSoftware,Kicad,Pcbnew,8.0.0
; #@! TF.FileFunction,Plated,1,2,PTH
FMAT,2
INCH
; #@! TA.AperFunction,Plated,PTH,ViaDrill
T1C0.0118
; #@! TA.AperFunction,Plated,PTH,ComponentDrill
T2C0.0295
; #@! TA.AperFunction,Plated,PTH,ComponentDrill
T3C0.0315
; #@! TA.AperFunction,Plated,PTH,ComponentDrill
T4C0.0354
; #@! TA.AperFunction,Plated,PTH,ComponentDrill
T5C0.0394
%
G90
G05
T1
X3.8937Y-3.2441
T2
X3.765Y-3.4433
X3.815Y-3.4433
X3.865Y-3.4433
X5.026Y-3.0732
X5.076Y-3.0732
X5.126Y-3.0732
X5.4618Y-3.4039
X5.5118Y-3.4039
X5.5618Y-3.4039
T3
X3.5632Y-2.9724
X3.5809Y-2.6752
X3.5809Y-2.8346
X3.6378Y-3.1142
X3.6378Y-3.2142
X3.6632Y-2.9724
X3.6809Y-2.6752
X3.6809Y-2.8346
X3.8364Y-2.9646
X3.8504Y-2.7835
X3.9364Y-2.9646
X3.9504Y-2.7835
X4.0866Y-2.6929
X4.0866Y-2.8898
X4.1047Y-3.0866
X4.1866Y-2.6929
X4.1866Y-2.8898
X4.2047Y-3.0866
X5.0157Y-2.697
X5.0157Y-2.797
X5.1341Y-2.8228
X5.1535Y-2.6811
X5.2341Y-2.8228
X5.2535Y-2.6811
X5.4057Y-3.0197
X5.4252Y-3.2126
X5.5057Y-3.0197
X5.5252Y-3.2126
X5.6339Y-2.6772
X5.6339Y-2.8366
X5.6516Y-2.9961
X5.7244Y-3.3585
X5.7244Y-3.4585
X5.7339Y-2.6772
X5.7339Y-2.8366
X5.7516Y-2.9961
T4
X3.4577Y-3.128
X3.4577Y-3.228
X3.5896Y-3.3593
X3.5896Y-3.4593
X4.5161Y-2.8789
X4.6161Y-2.8789
X4.7612Y-3.003
X4.8612Y-3.003
X5.7215Y-3.1392
X5.7215Y-3.2392
X5.8504Y-3.3858
X5.8504Y-3.4858
T5
X4.0071Y-3.3567
X4.0071Y-3.4567
X4.1071Y-3.3567
X4.1071Y-3.4567
X4.2071Y-3.3567
X4.2071Y-3.4567
X4.3071Y-3.3567
X4.3071Y-3.4567
X4.4071Y-3.3567
X4.4071Y-3.4567
X4.5071Y-3.3567
X4.5071Y-3.4567
X4.6071Y-3.3567
X4.6071Y-3.4567
X4.7071Y-3.3567
X4.7071Y-3.4567
X4.8071Y-3.3567
X4.8071Y-3.4567
X4.9071Y-3.3567
X4.9071Y-3.4567
X5.0071Y-3.3567
X5.0071Y-3.4567
X5.1071Y-3.3567
X5.1071Y-3.4567
X5.2071Y-3.3567
X5.2071Y-3.4567
X5.3071Y-3.3567
X5.3071Y-3.4567
M30
